<svg xmlns="http://www.w3.org/2000/svg" width="32" height="32" viewBox="0 0 32 32">
  <defs>
    <linearGradient id="viteGradient1" x1="6" y1="33" x2="235" y2="344" gradientTransform="translate(1.34 1.894) scale(.07142)" gradientUnits="userSpaceOnUse">
      <stop offset="0%" stop-color="#41d1ff"/>
      <stop offset="100%" stop-color="#bd34fe"/>
    </linearGradient>
    <linearGradient id="viteGradient2" x1="194.651" y1="8.818" x2="236.076" y2="292.989" gradientTransform="translate(1.34 1.894) scale(.07142)" gradientUnits="userSpaceOnUse">
      <stop offset="0%" stop-color="#ffea83"/>
      <stop offset="8.333%" stop-color="#ffdd35"/>
      <stop offset="100%" stop-color="#ffa800"/>
    </linearGradient>
  </defs>
  <path fill="url(#viteGradient1)" d="M32 2.547L17.708 27.508c-.448.771-1.568.771-2.016 0L1.4 2.547c-.495-.857.108-1.931 1.09-1.931h28.42c.982 0 1.585 1.074 1.09 1.931Z"/>
  <path fill="url(#viteGradient2)" d="M20.24 2.24 11.18 22.451c-.156.35-.622.35-.778 0L1.321 2.24c-.17-.376.048-.84.457-.84h18.004c.409 0 .627.464.457.84Z"/>
</svg>

